<svg width="32" height="32" viewBox="0 0 32 32" fill="none" xmlns="http://www.w3.org/2000/svg">
<rect width="32" height="32" fill="white"/>
<rect width="32" height="32" rx="8" fill="#131516"/>
<path d="M6.604 19.412V12.596L7.048 12.932L5.392 13.808L5.044 12.68L7.288 11.48H7.912V19.412H6.604ZM5.272 20V18.752H9.28V20H5.272ZM12.604 19.412V12.596L13.048 12.932L11.392 13.808L11.044 12.68L13.288 11.48H13.912V19.412H12.604ZM11.272 20V18.752H15.28V20H11.272ZM17.644 20V12.092H18.88V20H17.644ZM16.336 14.9V13.7H20.344V14.9H16.336ZM22.5255 22.76L23.7975 19.82L23.8095 20.804L20.6655 13.7H22.1055L24.0735 18.332C24.1135 18.412 24.1615 18.536 24.2175 18.704C24.2735 18.864 24.3215 19.024 24.3615 19.184L24.0495 19.256C24.1135 19.088 24.1735 18.92 24.2295 18.752C24.2935 18.584 24.3535 18.416 24.4095 18.248L26.0535 13.7H27.5175L24.9255 20L23.8575 22.76H22.5255Z" fill="#F0F0F0"/>
</svg>
